<svg xmlns="http://www.w3.org/2000/svg" viewBox="0 0 1200 900" font-family="Arial, sans-serif">
  <defs>
    <linearGradient id="bg" x1="0%" y1="0%" x2="100%" y2="100%">
      <stop offset="0%" style="stop-color:#0a0a2e"/>
      <stop offset="100%" style="stop-color:#1a1a4e"/>
    </linearGradient>
    <filter id="glow">
      <feGaussianBlur stdDeviation="3" result="blur"/>
      <feMerge><feMergeNode in="blur"/><feMergeNode in="SourceGraphic"/></feMerge>
    </filter>
    <linearGradient id="tier1" x1="0%" y1="0%" x2="100%" y2="0%">
      <stop offset="0%" style="stop-color:#ff6b6b"/>
      <stop offset="100%" style="stop-color:#ff8e8e"/>
    </linearGradient>
    <linearGradient id="tier2" x1="0%" y1="0%" x2="100%" y2="0%">
      <stop offset="0%" style="stop-color:#ffa500"/>
      <stop offset="100%" style="stop-color:#ffcc00"/>
    </linearGradient>
    <linearGradient id="tier3" x1="0%" y1="0%" x2="100%" y2="0%">
      <stop offset="0%" style="stop-color:#4ecdc4"/>
      <stop offset="100%" style="stop-color:#44bba4"/>
    </linearGradient>
    <linearGradient id="tier4" x1="0%" y1="0%" x2="100%" y2="0%">
      <stop offset="0%" style="stop-color:#6c5ce7"/>
      <stop offset="100%" style="stop-color:#a29bfe"/>
    </linearGradient>
  </defs>

  <!-- Background -->
  <rect width="1200" height="900" fill="url(#bg)"/>

  <!-- Title -->
  <text x="600" y="50" text-anchor="middle" fill="#ffffff" font-size="28" font-weight="bold" filter="url(#glow)">
    MetaFactoring: Future Research Roadmap
  </text>
  <text x="600" y="78" text-anchor="middle" fill="#aaaacc" font-size="14">
    Prioritized directions informed by complete formal verification (0 sorries)
  </text>

  <!-- Tier 1: Immediate -->
  <rect x="30" y="100" width="550" height="180" rx="12" fill="url(#tier1)" opacity="0.15" stroke="#ff6b6b" stroke-width="2"/>
  <text x="50" y="125" fill="#ff6b6b" font-size="16" font-weight="bold">TIER 1: IMMEDIATE EXPLORATION</text>

  <rect x="50" y="138" width="240" height="55" rx="8" fill="#ff6b6b" opacity="0.3"/>
  <text x="60" y="157" fill="#ffffff" font-size="12" font-weight="bold">🎯 Correlation Campaign</text>
  <text x="60" y="173" fill="#ccccee" font-size="10">10K semiprimes × 9 lenses</text>
  <text x="60" y="186" fill="#ccccee" font-size="10">36 pairwise MI values</text>

  <rect x="310" y="138" width="250" height="55" rx="8" fill="#ff6b6b" opacity="0.3"/>
  <text x="320" y="157" fill="#ffffff" font-size="12" font-weight="bold">🔥 Production Tropical Sieve</text>
  <text x="320" y="173" fill="#ccccee" font-size="10">84-89% elimination rate</text>
  <text x="320" y="186" fill="#ccccee" font-size="10">SIMD-vectorized v_p computation</text>

  <rect x="50" y="200" width="240" height="55" rx="8" fill="#ff6b6b" opacity="0.3"/>
  <text x="60" y="219" fill="#ffffff" font-size="12" font-weight="bold">📊 Smooth Number Density</text>
  <text x="60" y="235" fill="#ccccee" font-size="10">Ψ(N,B) formalized ✓</text>
  <text x="60" y="248" fill="#ccccee" font-size="10">Foundation for GNFS analysis</text>

  <rect x="310" y="200" width="250" height="55" rx="8" fill="#ff6b6b" opacity="0.3"/>
  <text x="320" y="219" fill="#ffffff" font-size="12" font-weight="bold">🌀 Fibonacci-Spectral Extended</text>
  <text x="320" y="235" fill="#ccccee" font-size="10">Pisano periods π(N) proved ✓</text>
  <text x="320" y="248" fill="#ccccee" font-size="10">Lucas sequence generalization ✓</text>

  <!-- Tier 2: Near-Term -->
  <rect x="620" y="100" width="550" height="180" rx="12" fill="url(#tier2)" opacity="0.15" stroke="#ffa500" stroke-width="2"/>
  <text x="640" y="125" fill="#ffa500" font-size="16" font-weight="bold">TIER 2: NEAR-TERM (1-2 YEARS)</text>

  <rect x="640" y="138" width="240" height="55" rx="8" fill="#ffa500" opacity="0.3"/>
  <text x="650" y="157" fill="#ffffff" font-size="12" font-weight="bold">🔬 Genus-2 Experiments</text>
  <text x="650" y="173" fill="#ccccee" font-size="10">Jacobian orders via Kedlaya</text>
  <text x="650" y="186" fill="#ccccee" font-size="10">Dimension gap proved ✓</text>

  <rect x="900" y="138" width="250" height="55" rx="8" fill="#ffa500" opacity="0.3"/>
  <text x="910" y="157" fill="#ffffff" font-size="12" font-weight="bold">⚛️ Quantum Preprocessing</text>
  <text x="910" y="173" fill="#ccccee" font-size="10">4.5 qubits/9 lenses proved ✓</text>
  <text x="910" y="186" fill="#ccccee" font-size="10">Error correction overhead</text>

  <rect x="640" y="200" width="240" height="55" rx="8" fill="#ffa500" opacity="0.3"/>
  <text x="650" y="219" fill="#ffffff" font-size="12" font-weight="bold">🧮 Quaternionic Benchmark</text>
  <text x="650" y="235" fill="#ccccee" font-size="10">Non-commutativity analysis ✓</text>
  <text x="650" y="248" fill="#ccccee" font-size="10">vs Pollard ρ benchmark</text>

  <rect x="900" y="200" width="250" height="55" rx="8" fill="#ffa500" opacity="0.3"/>
  <text x="910" y="219" fill="#ffffff" font-size="12" font-weight="bold">📐 Formal ECM Stage 1</text>
  <text x="910" y="235" fill="#ccccee" font-size="10">Hasse bound proved ✓</text>
  <text x="910" y="248" fill="#ccccee" font-size="10">B-smooth factorials proved ✓</text>

  <!-- Tier 3: Medium-Term -->
  <rect x="30" y="310" width="550" height="180" rx="12" fill="url(#tier3)" opacity="0.15" stroke="#4ecdc4" stroke-width="2"/>
  <text x="50" y="335" fill="#4ecdc4" font-size="16" font-weight="bold">TIER 3: MEDIUM-TERM (3-5 YEARS)</text>

  <rect x="50" y="348" width="240" height="55" rx="8" fill="#4ecdc4" opacity="0.3"/>
  <text x="60" y="367" fill="#ffffff" font-size="12" font-weight="bold">🔗 LWE-Factoring Bridge</text>
  <text x="60" y="383" fill="#ccccee" font-size="10">Lattice reduction lenses</text>
  <text x="60" y="396" fill="#ccccee" font-size="10">Post-quantum implications</text>

  <rect x="310" y="348" width="250" height="55" rx="8" fill="#4ecdc4" opacity="0.3"/>
  <text x="320" y="367" fill="#ffffff" font-size="12" font-weight="bold">📈 Analytic NT Integration</text>
  <text x="320" y="383" fill="#ccccee" font-size="10">PNT in arithmetic progressions</text>
  <text x="320" y="396" fill="#ccccee" font-size="10">Euler products ↔ tropical</text>

  <rect x="50" y="410" width="240" height="55" rx="8" fill="#4ecdc4" opacity="0.3"/>
  <text x="60" y="429" fill="#ffffff" font-size="12" font-weight="bold">🏗️ Categorical Lens Theory</text>
  <text x="60" y="445" fill="#ccccee" font-size="10">Symmetric monoidal category</text>
  <text x="60" y="458" fill="#ccccee" font-size="10">Tensor product formalized ✓</text>

  <rect x="310" y="410" width="250" height="55" rx="8" fill="#4ecdc4" opacity="0.3"/>
  <text x="320" y="429" fill="#ffffff" font-size="12" font-weight="bold">🧬 Galois-Theoretic Lens</text>
  <text x="320" y="445" fill="#ccccee" font-size="10">Frobenius orders proved ✓</text>
  <text x="320" y="458" fill="#ccccee" font-size="10">Chebotarev density approach</text>

  <!-- Tier 4: Grand Challenges -->
  <rect x="620" y="310" width="550" height="180" rx="12" fill="url(#tier4)" opacity="0.15" stroke="#6c5ce7" stroke-width="2"/>
  <text x="640" y="335" fill="#6c5ce7" font-size="16" font-weight="bold">TIER 4: GRAND CHALLENGES</text>

  <rect x="640" y="348" width="240" height="55" rx="8" fill="#6c5ce7" opacity="0.3"/>
  <text x="650" y="367" fill="#ffffff" font-size="12" font-weight="bold">🌟 Independence Conjecture</text>
  <text x="650" y="383" fill="#ccccee" font-size="10">Max lenses = O(log log N)?</text>
  <text x="650" y="396" fill="#ccccee" font-size="10">Complexity barriers</text>

  <rect x="900" y="348" width="250" height="55" rx="8" fill="#6c5ce7" opacity="0.3"/>
  <text x="910" y="367" fill="#ffffff" font-size="12" font-weight="bold">🏛️ MLC(k) Complexity Theory</text>
  <text x="910" y="383" fill="#ccccee" font-size="10">Hierarchy proved ✓</text>
  <text x="910" y="396" fill="#ccccee" font-size="10">Separation from BQP/NP</text>

  <rect x="640" y="410" width="510" height="55" rx="8" fill="#6c5ce7" opacity="0.3"/>
  <text x="650" y="429" fill="#ffffff" font-size="12" font-weight="bold">🔮 Cross-Collision Optimization</text>
  <text x="650" y="445" fill="#ccccee" font-size="10">Birthday bound proved ✓ · Orbit periodicity proved ✓</text>
  <text x="650" y="458" fill="#ccccee" font-size="10">Adaptive strategy theory · Optimal lens ordering</text>

  <!-- Formalization Status -->
  <rect x="30" y="520" width="1140" height="200" rx="12" fill="#ffffff" opacity="0.05" stroke="#ffffff" stroke-width="1"/>
  <text x="600" y="548" text-anchor="middle" fill="#ffffff" font-size="18" font-weight="bold">
    Formal Verification Status
  </text>

  <!-- Stats boxes -->
  <rect x="60" y="565" width="200" height="70" rx="8" fill="#22cc88" opacity="0.2"/>
  <text x="160" y="590" text-anchor="middle" fill="#22cc88" font-size="32" font-weight="bold">100+</text>
  <text x="160" y="612" text-anchor="middle" fill="#aaddbb" font-size="12">Theorems Proved</text>

  <rect x="290" y="565" width="200" height="70" rx="8" fill="#ff6b6b" opacity="0.2"/>
  <text x="390" y="590" text-anchor="middle" fill="#ff6b6b" font-size="32" font-weight="bold">0</text>
  <text x="390" y="612" text-anchor="middle" fill="#ffaaaa" font-size="12">Remaining Sorry</text>

  <rect x="520" y="565" width="200" height="70" rx="8" fill="#4ecdc4" opacity="0.2"/>
  <text x="620" y="590" text-anchor="middle" fill="#4ecdc4" font-size="32" font-weight="bold">12</text>
  <text x="620" y="612" text-anchor="middle" fill="#aadddd" font-size="12">Lean 4 Files</text>

  <rect x="750" y="565" width="200" height="70" rx="8" fill="#ffa500" opacity="0.2"/>
  <text x="850" y="590" text-anchor="middle" fill="#ffa500" font-size="32" font-weight="bold">10+</text>
  <text x="850" y="612" text-anchor="middle" fill="#ffcc88" font-size="12">Python Demos</text>

  <rect x="980" y="565" width="170" height="70" rx="8" fill="#6c5ce7" opacity="0.2"/>
  <text x="1065" y="590" text-anchor="middle" fill="#6c5ce7" font-size="32" font-weight="bold">40+</text>
  <text x="1065" y="612" text-anchor="middle" fill="#bbaaee" font-size="12">SVG Visuals</text>

  <!-- New theorems highlight -->
  <rect x="60" y="650" width="1080" height="55" rx="8" fill="#22cc88" opacity="0.1" stroke="#22cc88" stroke-width="1"/>
  <text x="600" y="672" text-anchor="middle" fill="#22cc88" font-size="13" font-weight="bold">
    NEW: Smooth numbers ✓ · Lucas sequences ✓ · Tribonacci bounds ✓ · Orbit periodicity ✓ · MLC hierarchy ✓
  </text>
  <text x="600" y="692" text-anchor="middle" fill="#88ddaa" font-size="12">
    Birthday collision ✓ · CRT reduction ✓ · Polynomial root bounds ✓ · Quantum savings ✓ · NFS norms ✓
  </text>

  <!-- Connection arrows (simplified) -->
  <line x1="305" y1="280" x2="305" y2="310" stroke="#4ecdc4" stroke-width="1.5" stroke-dasharray="4,4" opacity="0.5"/>
  <line x1="895" y1="280" x2="895" y2="310" stroke="#6c5ce7" stroke-width="1.5" stroke-dasharray="4,4" opacity="0.5"/>
  <line x1="580" y1="220" x2="620" y2="220" stroke="#ffa500" stroke-width="1.5" stroke-dasharray="4,4" opacity="0.5"/>

  <!-- Footer -->
  <text x="600" y="760" text-anchor="middle" fill="#666688" font-size="11">
    MetaFactoring Research Program · Machine-Verified Mathematical Foundations · Lean 4 + Mathlib
  </text>
</svg>
